<svg width="47" height="45" viewBox="0 0 47 45" fill="none" xmlns="http://www.w3.org/2000/svg">
<path d="M40.4298 2.88784C41.1957 2.88784 41.9302 3.19209 42.4718 3.73367C43.0134 4.27525 43.3176 5.00978 43.3176 5.77568V28.8784C43.3176 29.6443 43.0134 30.3788 42.4718 30.9204C41.9302 31.462 41.1957 31.7663 40.4298 31.7663H33.2102C32.3135 31.7663 31.4292 31.975 30.6272 32.376C29.8252 32.777 29.1276 33.3592 28.5896 34.0765L23.1027 41.3914L17.6158 34.0765C17.0778 33.3592 16.3802 32.777 15.5782 32.376C14.7763 31.975 13.8919 31.7663 12.9953 31.7663H5.77568C5.00978 31.7663 4.27524 31.462 3.73367 30.9204C3.19209 30.3788 2.88784 29.6443 2.88784 28.8784V5.77568C2.88784 5.00978 3.19209 4.27525 3.73367 3.73367C4.27524 3.19209 5.00978 2.88784 5.77568 2.88784H40.4298ZM5.77568 0C4.24388 0 2.77481 0.608508 1.69166 1.69166C0.608508 2.77481 0 4.24388 0 5.77568L0 28.8784C0 30.4102 0.608508 31.8793 1.69166 32.9624C2.77481 34.0456 4.24388 34.6541 5.77568 34.6541H12.9953C13.4436 34.6541 13.8858 34.7585 14.2868 34.959C14.6878 35.1595 15.0366 35.4506 15.3056 35.8092L20.7925 43.1241C21.0614 43.4828 21.4103 43.7739 21.8112 43.9744C22.2122 44.1749 22.6544 44.2793 23.1027 44.2793C23.551 44.2793 23.9932 44.1749 24.3942 43.9744C24.7952 43.7739 25.144 43.4828 25.413 43.1241L30.8999 35.8092C31.1689 35.4506 31.5177 35.1595 31.9187 34.959C32.3197 34.7585 32.7618 34.6541 33.2102 34.6541H40.4298C41.9616 34.6541 43.4306 34.0456 44.5138 32.9624C45.5969 31.8793 46.2055 30.4102 46.2055 28.8784V5.77568C46.2055 4.24388 45.5969 2.77481 44.5138 1.69166C43.4306 0.608508 41.9616 0 40.4298 0L5.77568 0Z" fill="#3B434F"/>
<path d="M8.6647 10.1075C8.6647 9.72454 8.81683 9.35728 9.08762 9.08649C9.35841 8.8157 9.72567 8.66357 10.1086 8.66357H36.0992C36.4821 8.66357 36.8494 8.8157 37.1202 9.08649C37.391 9.35728 37.5431 9.72454 37.5431 10.1075C37.5431 10.4904 37.391 10.8577 37.1202 11.1285C36.8494 11.3993 36.4821 11.5514 36.0992 11.5514H10.1086C9.72567 11.5514 9.35841 11.3993 9.08762 11.1285C8.81683 10.8577 8.6647 10.4904 8.6647 10.1075ZM8.6647 17.3271C8.6647 16.9441 8.81683 16.5769 9.08762 16.3061C9.35841 16.0353 9.72567 15.8832 10.1086 15.8832H36.0992C36.4821 15.8832 36.8494 16.0353 37.1202 16.3061C37.391 16.5769 37.5431 16.9441 37.5431 17.3271C37.5431 17.71 37.391 18.0773 37.1202 18.3481C36.8494 18.6189 36.4821 18.771 36.0992 18.771H10.1086C9.72567 18.771 9.35841 18.6189 9.08762 18.3481C8.81683 18.0773 8.6647 17.71 8.6647 17.3271ZM8.6647 24.5467C8.6647 24.1637 8.81683 23.7965 9.08762 23.5257C9.35841 23.2549 9.72567 23.1028 10.1086 23.1028H24.5478C24.9308 23.1028 25.298 23.2549 25.5688 23.5257C25.8396 23.7965 25.9917 24.1637 25.9917 24.5467C25.9917 24.9296 25.8396 25.2969 25.5688 25.5677C25.298 25.8385 24.9308 25.9906 24.5478 25.9906H10.1086C9.72567 25.9906 9.35841 25.8385 9.08762 25.5677C8.81683 25.2969 8.6647 24.9296 8.6647 24.5467Z" fill="#3B434F"/>
</svg>
