<svg xmlns="http://www.w3.org/2000/svg" width="188.973" height="188.973"><path d="M188.976 162.31c0 14.665-11.997 26.663-26.663 26.663H26.663C11.999 188.973 0 176.975 0 162.311V26.66C0 11.995 11.998-.003 26.664-.003h135.65c14.665 0 26.662 11.998 26.662 26.663v135.65"/><path d="M22.455 101.38h15.512c11.72 0 21.375 9.207 21.375 21.036 0 11.834-9.713 21.042-21.375 21.042H22.455zm10.938 32.814h2.455c6.53 0 12.108-3.576 12.108-11.778 0-7.529-4.966-11.773-11.997-11.773h-2.566v23.55M73.348 143.458H63.19v-28.63h10.158v28.63M110.294 140.665c0 12.167-6.028 17.077-16.574 17.077-6.586 0-15.402-3.403-16.295-10.935H88.81c.276 1.001 1.002 1.726 1.896 2.173.893.445 1.952.67 2.903.67 5.47 0 6.529-3.573 6.529-8.203v-1.338c-2.624 2.622-5.303 3.905-9.096 3.905-8.37 0-14.12-6.363-14.12-14.62 0-8.372 5.917-15.516 14.677-15.516 3.35 0 6.418 1.115 8.43 3.965h.109v-3.016h10.156zm-22.882-11.718c0 3.63 2.4 6.418 6.531 6.418 4.13 0 6.53-2.789 6.53-6.418 0-3.514-2.4-6.474-6.53-6.474-4.131 0-6.531 2.96-6.531 6.474" fill="#fff"/><path d="M125.807 143.458H115.65v-28.63h10.158v28.63M131.767 101.38h15.512c11.72 0 21.373 9.207 21.373 21.036 0 11.834-9.71 21.042-21.373 21.042h-15.512zm10.936 32.814h2.454c6.528 0 12.111-3.576 12.111-11.778 0-7.529-4.968-11.773-12-11.773h-2.565v23.55" fill="#f68b1b"/><path d="M74.01 103.928c0 3.122-2.567 5.691-5.692 5.691-3.126 0-5.693-2.57-5.693-5.691 0-3.127 2.567-5.693 5.693-5.693 3.125 0 5.692 2.566 5.692 5.693" fill="#fff"/><path d="M126.295 103.928c0 3.122-2.567 5.689-5.69 5.689-3.128 0-5.695-2.567-5.695-5.689 0-3.127 2.567-5.693 5.696-5.693 3.122 0 5.69 2.566 5.69 5.693" fill="#f68b1b"/></svg>