<svg width="28" height="44" viewBox="0 0 28 44" fill="none" xmlns="http://www.w3.org/2000/svg">
<path fill-rule="evenodd" clip-rule="evenodd" d="M3.087 0.228271H24.696C25.5147 0.228271 26.2999 0.553508 26.8789 1.13243C27.4578 1.71136 27.783 2.49655 27.783 3.31527V40.3593C27.783 41.178 27.4578 41.9632 26.8789 42.5421C26.2999 43.1211 25.5147 43.4463 24.696 43.4463H3.087C2.26828 43.4463 1.48309 43.1211 0.904162 42.5421C0.325237 41.9632 0 41.178 0 40.3593V3.31527C0 2.49655 0.325237 1.71136 0.904162 1.13243C1.48309 0.553508 2.26828 0.228271 3.087 0.228271ZM24.696 3.31527H3.087V31.0983H24.696V3.31527ZM3.087 34.1853V40.3593H24.696V34.1853H3.087ZM15.087 35.7288H12V38.8158H15.087V35.7288Z" fill="black"/>
</svg>
