<svg width="50" height="44" viewBox="0 0 50 44" fill="none" xmlns="http://www.w3.org/2000/svg">
<path d="M0 4.3691C0 3.21035 0.460315 2.09905 1.27968 1.27968C2.09905 0.460314 3.21035 0 4.3691 0H42.2347C43.3934 0 44.5047 0.460314 45.3241 1.27968C46.1435 2.09905 46.6038 3.21035 46.6038 4.3691V14.2899C45.6858 13.8932 44.6903 13.7081 43.691 13.7481V4.3691C43.691 3.98285 43.5376 3.61242 43.2645 3.3393C42.9914 3.06617 42.6209 2.91274 42.2347 2.91274H4.3691C3.98285 2.91274 3.61242 3.06617 3.3393 3.3393C3.06617 3.61242 2.91274 3.98285 2.91274 4.3691V30.5837C2.91274 30.97 3.06617 31.3404 3.3393 31.6135C3.61242 31.8867 3.98285 32.0401 4.3691 32.0401H11.6509V27.671C11.6509 26.5122 12.1113 25.4009 12.9306 24.5816C13.75 23.7622 14.8613 23.3019 16.02 23.3019H30.5837C31.7425 23.3019 32.8538 23.7622 33.6731 24.5816C34.4925 25.4009 34.9528 26.5122 34.9528 27.671V30.7993C33.7557 30.8371 32.8032 31.2071 32.0401 31.7226V27.671C32.0401 27.2847 31.8867 26.9143 31.6135 26.6412C31.3404 26.3681 30.97 26.2146 30.5837 26.2146H16.02C15.6338 26.2146 15.2634 26.3681 14.9902 26.6412C14.7171 26.9143 14.5637 27.2847 14.5637 27.671V32.0401H31.6119C30.6944 32.7858 30.0827 33.7178 29.6313 34.3994C29.512 34.5872 29.3877 34.7718 29.2584 34.9528H4.3691C3.21035 34.9528 2.09905 34.4925 1.27968 33.6732C0.460315 32.8538 0 31.7425 0 30.5837V4.3691ZM23.3019 20.3892C25.2332 20.3892 27.0853 19.622 28.4509 18.2564C29.8165 16.8907 30.5837 15.0386 30.5837 13.1073C30.5837 11.176 29.8165 9.32388 28.4509 7.95827C27.0853 6.59266 25.2332 5.82547 23.3019 5.82547C21.3706 5.82547 19.5185 6.59266 18.1528 7.95827C16.7872 9.32388 16.02 11.176 16.02 13.1073C16.02 15.0386 16.7872 16.8907 18.1528 18.2564C19.5185 19.622 21.3706 20.3892 23.3019 20.3892ZM23.3019 17.4764C22.1431 17.4764 21.0318 17.0161 20.2125 16.1967C19.3931 15.3774 18.9328 14.2661 18.9328 13.1073C18.9328 11.9486 19.3931 10.8373 20.2125 10.0179C21.0318 9.19852 22.1431 8.73821 23.3019 8.73821C24.4606 8.73821 25.5719 9.19852 26.3913 10.0179C27.2107 10.8373 27.671 11.9486 27.671 13.1073C27.671 14.2661 27.2107 15.3774 26.3913 16.1967C25.5719 17.0161 24.4606 17.4764 23.3019 17.4764ZM40.2977 21.161L41.4599 18.4201C42.0046 17.1327 43.3095 16.4337 44.5911 16.7016L44.8649 16.7715L46.3212 17.2376C47.766 17.7007 48.8699 18.9357 49.2281 20.4882C50.0758 24.1786 49.0592 28.673 46.1727 33.9683C43.292 39.2579 40.1375 42.4357 36.7034 43.5075C35.3694 43.9241 33.9363 43.6241 32.8586 42.7182L32.576 42.456L31.4692 41.3463C31.0042 40.8676 30.7038 40.2532 30.6116 39.5922C30.5195 38.9312 30.6403 38.2581 30.9566 37.6704L31.1197 37.4024L32.7858 34.9557C33.0887 34.4939 33.5232 34.1335 34.0331 33.9211C34.543 33.7087 35.1048 33.6542 35.6461 33.7644L35.9373 33.8431L39.0161 34.8713C40.2424 33.9392 41.2676 32.7741 42.0861 31.3614C42.7881 30.1526 43.2512 28.9293 43.4638 27.6885L43.5512 27.0651L40.9909 24.633C40.5777 24.2303 40.2839 23.7211 40.142 23.1619C40.0001 22.6026 40.0157 22.0149 40.187 21.464L40.2948 21.161H40.2977Z" fill="#3B434F"/>
</svg>
